<svg width="24" height="21" viewBox="0 0 24 21" fill="none" xmlns="http://www.w3.org/2000/svg">
<path d="M23 1.9998C22.0424 2.67528 20.9821 3.19191 19.86 3.5298C19.2577 2.83731 18.4573 2.34649 17.567 2.12373C16.6767 1.90096 15.7395 1.957 14.8821 2.28426C14.0247 2.61151 13.2884 3.1942 12.773 3.95352C12.2575 4.71283 11.9877 5.61214 12 6.5298V7.5298C10.2426 7.57537 8.50127 7.18561 6.93101 6.39525C5.36074 5.60488 4.01032 4.43844 3 2.9998C3 2.9998 -1 11.9998 8 15.9998C5.94053 17.3978 3.48716 18.0987 1 17.9998C10 22.9998 21 17.9998 21 6.4998C20.9991 6.22126 20.9723 5.9434 20.92 5.6698C21.9406 4.6633 22.6608 3.39251 23 1.9998V1.9998Z" stroke="#0C1B4D" stroke-width="2" stroke-linecap="round" stroke-linejoin="round"/>
</svg>
